<svg xmlns="http://www.w3.org/2000/svg" width="600" height="288" viewBox="0 0 600 288" role="img">
<circle cx="125.4" cy="139.6" r="3.1" fill="#111"/><circle cx="134.1" cy="141.9" r="3.1" fill="#111"/><circle cx="123.9" cy="171.7" r="3.1" fill="#111"/><circle cx="114.1" cy="143.9" r="3.1" fill="#111"/><circle cx="114.6" cy="152.7" r="3.1" fill="#111"/><circle cx="151.4" cy="145.2" r="3.1" fill="#111"/><circle cx="134.3" cy="149.7" r="3.1" fill="#111"/><circle cx="133.7" cy="142.4" r="3.1" fill="#111"/><circle cx="124.4" cy="163.3" r="3.1" fill="#111"/><circle cx="115.3" cy="150.9" r="3.1" fill="#111"/><circle cx="134.7" cy="145.2" r="3.1" fill="#111"/><circle cx="116.9" cy="156.5" r="3.1" fill="#111"/><circle cx="120.8" cy="147.6" r="3.1" fill="#111"/><circle cx="125.9" cy="167.2" r="3.1" fill="#111"/><circle cx="146.7" cy="166.6" r="3.1" fill="#111"/><circle cx="105.7" cy="150.4" r="3.1" fill="#111"/><circle cx="138.3" cy="160.8" r="3.1" fill="#111"/><circle cx="107.8" cy="136.6" r="3.1" fill="#111"/><circle cx="137.0" cy="167.7" r="3.1" fill="#111"/><circle cx="129.5" cy="140.1" r="3.1" fill="#111"/><circle cx="128" cy="198" r="4.5" fill="#111"/><text x="128" y="216" text-anchor="middle" font-family="system-ui, -apple-system, Segoe UI, Roboto, sans-serif" font-size="11" font-weight="600" fill="#111">UTC(k)</text><line x1="128" y1="191" x2="126" y2="162" stroke="#111" stroke-width="1.2" stroke-dasharray="3 3"/><polygon points="126,162 129.16306530136836,168.2445990983633 123.72412761912997,168.61969824886248" fill="#111"/><line x1="120" y1="142" x2="136" y2="158" stroke="#c0392b" stroke-width="3.4"/><line x1="120" y1="158" x2="136" y2="142" stroke="#c0392b" stroke-width="3.4"/><circle cx="202" cy="102" r="26" fill="none" stroke="#777" stroke-width="1" stroke-dasharray="3 5"/><text x="202" y="56" text-anchor="middle" font-family="system-ui, -apple-system, Segoe UI, Roboto, sans-serif" font-size="12" font-weight="400" fill="#777" font-style="italic">UTC</text><text x="202" y="69" text-anchor="middle" font-family="system-ui, -apple-system, Segoe UI, Roboto, sans-serif" font-size="10" font-weight="400" fill="#777" font-style="italic">not computed yet</text><circle cx="482" cy="102" r="66" fill="none" stroke="#777" stroke-width="1"/><circle cx="482" cy="102" r="42" fill="none" stroke="#777" stroke-width="1"/><circle cx="482" cy="102" r="20" fill="none" stroke="#777" stroke-width="1"/><circle cx="482" cy="102" r="2" fill="#777"/><circle cx="405.4" cy="139.6" r="3.1" fill="#111"/><circle cx="414.1" cy="141.9" r="3.1" fill="#111"/><circle cx="403.9" cy="171.7" r="3.1" fill="#111"/><circle cx="394.1" cy="143.9" r="3.1" fill="#111"/><circle cx="394.6" cy="152.7" r="3.1" fill="#111"/><circle cx="431.4" cy="145.2" r="3.1" fill="#111"/><circle cx="414.3" cy="149.7" r="3.1" fill="#111"/><circle cx="413.7" cy="142.4" r="3.1" fill="#111"/><circle cx="404.4" cy="163.3" r="3.1" fill="#111"/><circle cx="395.3" cy="150.9" r="3.1" fill="#111"/><circle cx="414.7" cy="145.2" r="3.1" fill="#111"/><circle cx="396.9" cy="156.5" r="3.1" fill="#111"/><circle cx="400.8" cy="147.6" r="3.1" fill="#111"/><circle cx="405.9" cy="167.2" r="3.1" fill="#111"/><circle cx="426.7" cy="166.6" r="3.1" fill="#111"/><circle cx="385.7" cy="150.4" r="3.1" fill="#111"/><circle cx="418.3" cy="160.8" r="3.1" fill="#111"/><circle cx="387.8" cy="136.6" r="3.1" fill="#111"/><circle cx="417.0" cy="167.7" r="3.1" fill="#111"/><circle cx="409.5" cy="140.1" r="3.1" fill="#111"/><circle cx="408" cy="198" r="4.5" fill="#111"/><text x="408" y="216" text-anchor="middle" font-family="system-ui, -apple-system, Segoe UI, Roboto, sans-serif" font-size="11" font-weight="600" fill="#111">UTC(k)</text><line x1="408" y1="191" x2="406" y2="162" stroke="#111" stroke-width="1.2" stroke-dasharray="3 3"/><polygon points="406,162 409.16306530136836,168.2445990983633 403.72412761913,168.61969824886248" fill="#111"/><line x1="400" y1="142" x2="416" y2="158" stroke="#c0392b" stroke-width="3.4"/><line x1="400" y1="158" x2="416" y2="142" stroke="#c0392b" stroke-width="3.4"/><text x="482" y="26" text-anchor="middle" font-family="system-ui, -apple-system, Segoe UI, Roboto, sans-serif" font-size="12" font-weight="700" fill="#111">UTC</text><line x1="417" y1="141" x2="473" y2="111" stroke="#c0392b" stroke-width="2"/><polygon points="473,111 468.60396403593245,116.4474643461545 466.0294805206308,111.64176178425808" fill="#c0392b"/><text x="158" y="248" text-anchor="middle" font-family="system-ui, -apple-system, Segoe UI, Roboto, sans-serif" font-size="13" font-weight="600" fill="#111">When you take the measurement</text><text x="438" y="248" text-anchor="middle" font-family="system-ui, -apple-system, Segoe UI, Roboto, sans-serif" font-size="13" font-weight="600" fill="#111">A month later, in Circular T</text><text x="158" y="266" text-anchor="middle" font-family="system-ui, -apple-system, Segoe UI, Roboto, sans-serif" font-size="11" font-weight="400" fill="#777" font-style="italic">only your offset from UTC(k) is knowable</text><text x="438" y="266" text-anchor="middle" font-family="system-ui, -apple-system, Segoe UI, Roboto, sans-serif" font-size="11" font-weight="400" fill="#777" font-style="italic">the red arrow — your trueness — can finally be drawn</text>
</svg>
