<svg xmlns="http://www.w3.org/2000/svg" width="560" height="250" viewBox="0 0 560 250" role="img">
<polygon points="203.9,118.0 209.5,133.9 207.6,150.9 196.1,163.3 177.9,165.7 164.2,168.7 151.7,172.8 137.8,177.4 123.8,173.9 112.0,165.8 99.7,158.1 88.3,147.8 79.2,134.2 80.1,118.0 85.0,103.2 93.5,91.0 100.4,78.5 109.2,66.2 120.5,53.5 136.2,45.8 154.0,43.6 171.3,48.8 185.6,59.2 194.0,74.6 198.0,90.2 199.5,104.6" fill="none" stroke="#777" stroke-width="1" stroke-dasharray="4 4"/><circle cx="191.9" cy="116.8" r="3.1" fill="#111"/><circle cx="128.9" cy="119.3" r="3.1" fill="#111"/><circle cx="142.7" cy="133.6" r="3.1" fill="#111"/><circle cx="132.6" cy="97.3" r="3.1" fill="#111"/><circle cx="119.0" cy="144.3" r="3.1" fill="#111"/><circle cx="165.4" cy="137.2" r="3.1" fill="#111"/><circle cx="136.6" cy="119.4" r="3.1" fill="#111"/><circle cx="178.1" cy="104.7" r="3.1" fill="#111"/><circle cx="159.6" cy="132.5" r="3.1" fill="#111"/><circle cx="155.1" cy="98.2" r="3.1" fill="#111"/><circle cx="167.1" cy="122.2" r="3.1" fill="#111"/><circle cx="123.5" cy="137.7" r="3.1" fill="#111"/><circle cx="139.6" cy="102.3" r="3.1" fill="#111"/><circle cx="167.6" cy="114.8" r="3.1" fill="#111"/><circle cx="124.1" cy="142.1" r="3.1" fill="#111"/><circle cx="158.0" cy="126.6" r="3.1" fill="#111"/><circle cx="158.7" cy="83.4" r="3.1" fill="#111"/><circle cx="157.2" cy="120.5" r="3.1" fill="#111"/><circle cx="161.9" cy="113.8" r="3.1" fill="#111"/><circle cx="155.8" cy="108.8" r="3.1" fill="#111"/><circle cx="132.0" cy="130.6" r="3.1" fill="#111"/><circle cx="153.2" cy="104.2" r="3.1" fill="#111"/><text x="97" y="82" text-anchor="middle" font-family="system-ui, -apple-system, Segoe UI, Roboto, sans-serif" font-size="12" font-weight="400" fill="#777" font-style="italic">UTC?</text><text x="195" y="98" text-anchor="middle" font-family="system-ui, -apple-system, Segoe UI, Roboto, sans-serif" font-size="12" font-weight="400" fill="#777" font-style="italic">UTC?</text><text x="155" y="166" text-anchor="middle" font-family="system-ui, -apple-system, Segoe UI, Roboto, sans-serif" font-size="12" font-weight="400" fill="#777" font-style="italic">UTC?</text><text x="111" y="156" text-anchor="middle" font-family="system-ui, -apple-system, Segoe UI, Roboto, sans-serif" font-size="12" font-weight="400" fill="#777" font-style="italic">UTC?</text><text x="189" y="144" text-anchor="middle" font-family="system-ui, -apple-system, Segoe UI, Roboto, sans-serif" font-size="12" font-weight="400" fill="#777" font-style="italic">UTC?</text><text x="145" y="232" text-anchor="middle" font-family="system-ui, -apple-system, Segoe UI, Roboto, sans-serif" font-size="13" font-weight="600" fill="#111">What you can observe</text><circle cx="415" cy="118" r="82" fill="none" stroke="#777" stroke-width="1"/><circle cx="415" cy="118" r="54.120000000000005" fill="none" stroke="#777" stroke-width="1"/><circle cx="415" cy="118" r="27.060000000000002" fill="none" stroke="#777" stroke-width="1"/><circle cx="415" cy="118" r="2" fill="#777"/><circle cx="461.9" cy="116.8" r="3.1" fill="#111"/><circle cx="398.9" cy="119.3" r="3.1" fill="#111"/><circle cx="412.7" cy="133.6" r="3.1" fill="#111"/><circle cx="402.6" cy="97.3" r="3.1" fill="#111"/><circle cx="389.0" cy="144.3" r="3.1" fill="#111"/><circle cx="435.4" cy="137.2" r="3.1" fill="#111"/><circle cx="406.6" cy="119.4" r="3.1" fill="#111"/><circle cx="448.1" cy="104.7" r="3.1" fill="#111"/><circle cx="429.6" cy="132.5" r="3.1" fill="#111"/><circle cx="425.1" cy="98.2" r="3.1" fill="#111"/><circle cx="437.1" cy="122.2" r="3.1" fill="#111"/><circle cx="393.5" cy="137.7" r="3.1" fill="#111"/><circle cx="409.6" cy="102.3" r="3.1" fill="#111"/><circle cx="437.6" cy="114.8" r="3.1" fill="#111"/><circle cx="394.1" cy="142.1" r="3.1" fill="#111"/><circle cx="428.0" cy="126.6" r="3.1" fill="#111"/><circle cx="428.7" cy="83.4" r="3.1" fill="#111"/><circle cx="427.2" cy="120.5" r="3.1" fill="#111"/><circle cx="431.9" cy="113.8" r="3.1" fill="#111"/><circle cx="425.8" cy="108.8" r="3.1" fill="#111"/><circle cx="402.0" cy="130.6" r="3.1" fill="#111"/><circle cx="423.2" cy="104.2" r="3.1" fill="#111"/><text x="415" y="122" text-anchor="middle" font-family="system-ui, sans-serif" font-size="14" font-weight="700" fill="#111" stroke="#fff" stroke-width="4" style="paint-order: stroke fill;">UTC!</text><text x="415" y="232" text-anchor="middle" font-family="system-ui, -apple-system, Segoe UI, Roboto, sans-serif" font-size="13" font-weight="600" fill="#111">What you would need</text>
</svg>
